<mxfile host="app.diagrams.net" agent="Mozilla/5.0 (Windows NT 10.0; Win64; x64) AppleWebKit/537.36 (KHTML, like Gecko) Chrome/130.0.0.0 Safari/537.36" version="24.8.6">
  <diagram name="PÃ¡gina-1" id="6WPcmS42hxld3X0Wiw-c">
    <mxGraphModel dx="1195" dy="653" grid="1" gridSize="10" guides="1" tooltips="1" connect="1" arrows="1" fold="1" page="1" pageScale="1" pageWidth="827" pageHeight="1169" math="0" shadow="0">
      <root>
        <mxCell id="0" />
        <mxCell id="1" parent="0" />
        <mxCell id="KD-Kh0kLkDnsVTClBq_C-6" value="fondo" style="swimlane;fontStyle=0;childLayout=stackLayout;horizontal=1;startSize=30;horizontalStack=0;resizeParent=1;resizeParentMax=0;resizeLast=0;collapsible=1;marginBottom=0;whiteSpace=wrap;html=1;" parent="1" vertex="1">
          <mxGeometry x="440" y="160" width="110" height="120" as="geometry" />
        </mxCell>
        <mxCell id="KD-Kh0kLkDnsVTClBq_C-7" value="id" style="text;strokeColor=none;fillColor=none;align=left;verticalAlign=middle;spacingLeft=4;spacingRight=4;overflow=hidden;points=[[0,0.5],[1,0.5]];portConstraint=eastwest;rotatable=0;whiteSpace=wrap;html=1;" parent="KD-Kh0kLkDnsVTClBq_C-6" vertex="1">
          <mxGeometry y="30" width="110" height="30" as="geometry" />
        </mxCell>
        <mxCell id="KD-Kh0kLkDnsVTClBq_C-8" value="dinero" style="text;strokeColor=none;fillColor=none;align=left;verticalAlign=middle;spacingLeft=4;spacingRight=4;overflow=hidden;points=[[0,0.5],[1,0.5]];portConstraint=eastwest;rotatable=0;whiteSpace=wrap;html=1;" parent="KD-Kh0kLkDnsVTClBq_C-6" vertex="1">
          <mxGeometry y="60" width="110" height="30" as="geometry" />
        </mxCell>
        <mxCell id="KD-Kh0kLkDnsVTClBq_C-9" value="_key" style="text;strokeColor=none;fillColor=none;align=left;verticalAlign=middle;spacingLeft=4;spacingRight=4;overflow=hidden;points=[[0,0.5],[1,0.5]];portConstraint=eastwest;rotatable=0;whiteSpace=wrap;html=1;" parent="KD-Kh0kLkDnsVTClBq_C-6" vertex="1">
          <mxGeometry y="90" width="110" height="30" as="geometry" />
        </mxCell>
        <mxCell id="KD-Kh0kLkDnsVTClBq_C-14" value="" style="endArrow=classic;startArrow=classic;html=1;rounded=0;entryX=0;entryY=0.25;entryDx=0;entryDy=0;exitX=1;exitY=0.25;exitDx=0;exitDy=0;" parent="1" source="KD-Kh0kLkDnsVTClBq_C-10" target="KD-Kh0kLkDnsVTClBq_C-6" edge="1">
          <mxGeometry width="50" height="50" relative="1" as="geometry">
            <mxPoint x="390" y="430" as="sourcePoint" />
            <mxPoint x="440" y="380" as="targetPoint" />
          </mxGeometry>
        </mxCell>
        <mxCell id="KD-Kh0kLkDnsVTClBq_C-19" value="Banco" style="swimlane;whiteSpace=wrap;html=1;" parent="1" vertex="1">
          <mxGeometry x="95" y="90" width="700" height="320" as="geometry" />
        </mxCell>
        <mxCell id="KD-Kh0kLkDnsVTClBq_C-10" value="funcionario" style="swimlane;fontStyle=0;childLayout=stackLayout;horizontal=1;startSize=30;horizontalStack=0;resizeParent=1;resizeParentMax=0;resizeLast=0;collapsible=1;marginBottom=0;whiteSpace=wrap;html=1;" parent="KD-Kh0kLkDnsVTClBq_C-19" vertex="1">
          <mxGeometry x="185" y="70" width="110" height="120" as="geometry" />
        </mxCell>
        <mxCell id="KD-Kh0kLkDnsVTClBq_C-12" value="name" style="text;strokeColor=none;fillColor=none;align=left;verticalAlign=middle;spacingLeft=4;spacingRight=4;overflow=hidden;points=[[0,0.5],[1,0.5]];portConstraint=eastwest;rotatable=0;whiteSpace=wrap;html=1;" parent="KD-Kh0kLkDnsVTClBq_C-10" vertex="1">
          <mxGeometry y="30" width="110" height="30" as="geometry" />
        </mxCell>
        <mxCell id="DtkKAuC_2zo1YhmkG4dH-1" value="id" style="text;strokeColor=none;fillColor=none;align=left;verticalAlign=middle;spacingLeft=4;spacingRight=4;overflow=hidden;points=[[0,0.5],[1,0.5]];portConstraint=eastwest;rotatable=0;whiteSpace=wrap;html=1;" vertex="1" parent="KD-Kh0kLkDnsVTClBq_C-10">
          <mxGeometry y="60" width="110" height="30" as="geometry" />
        </mxCell>
        <mxCell id="KD-Kh0kLkDnsVTClBq_C-22" value="_password" style="text;strokeColor=none;fillColor=none;align=left;verticalAlign=middle;spacingLeft=4;spacingRight=4;overflow=hidden;points=[[0,0.5],[1,0.5]];portConstraint=eastwest;rotatable=0;whiteSpace=wrap;html=1;" parent="KD-Kh0kLkDnsVTClBq_C-10" vertex="1">
          <mxGeometry y="90" width="110" height="30" as="geometry" />
        </mxCell>
        <mxCell id="KD-Kh0kLkDnsVTClBq_C-2" value="usuario" style="swimlane;fontStyle=0;childLayout=stackLayout;horizontal=1;startSize=30;horizontalStack=0;resizeParent=1;resizeParentMax=0;resizeLast=0;collapsible=1;marginBottom=0;whiteSpace=wrap;html=1;" parent="KD-Kh0kLkDnsVTClBq_C-19" vertex="1">
          <mxGeometry x="25" y="70" width="110" height="150" as="geometry" />
        </mxCell>
        <mxCell id="KD-Kh0kLkDnsVTClBq_C-3" value="nombre" style="text;strokeColor=none;fillColor=none;align=left;verticalAlign=middle;spacingLeft=4;spacingRight=4;overflow=hidden;points=[[0,0.5],[1,0.5]];portConstraint=eastwest;rotatable=0;whiteSpace=wrap;html=1;" parent="KD-Kh0kLkDnsVTClBq_C-2" vertex="1">
          <mxGeometry y="30" width="110" height="30" as="geometry" />
        </mxCell>
        <mxCell id="KD-Kh0kLkDnsVTClBq_C-4" value="apellido" style="text;strokeColor=none;fillColor=none;align=left;verticalAlign=middle;spacingLeft=4;spacingRight=4;overflow=hidden;points=[[0,0.5],[1,0.5]];portConstraint=eastwest;rotatable=0;whiteSpace=wrap;html=1;" parent="KD-Kh0kLkDnsVTClBq_C-2" vertex="1">
          <mxGeometry y="60" width="110" height="30" as="geometry" />
        </mxCell>
        <mxCell id="KD-Kh0kLkDnsVTClBq_C-5" value="_password" style="text;strokeColor=none;fillColor=none;align=left;verticalAlign=middle;spacingLeft=4;spacingRight=4;overflow=hidden;points=[[0,0.5],[1,0.5]];portConstraint=eastwest;rotatable=0;whiteSpace=wrap;html=1;" parent="KD-Kh0kLkDnsVTClBq_C-2" vertex="1">
          <mxGeometry y="90" width="110" height="30" as="geometry" />
        </mxCell>
        <mxCell id="KD-Kh0kLkDnsVTClBq_C-16" value="_cedula" style="text;strokeColor=none;fillColor=none;align=left;verticalAlign=middle;spacingLeft=4;spacingRight=4;overflow=hidden;points=[[0,0.5],[1,0.5]];portConstraint=eastwest;rotatable=0;whiteSpace=wrap;html=1;" parent="KD-Kh0kLkDnsVTClBq_C-2" vertex="1">
          <mxGeometry y="120" width="110" height="30" as="geometry" />
        </mxCell>
        <mxCell id="KD-Kh0kLkDnsVTClBq_C-15" value="" style="endArrow=classic;startArrow=classic;html=1;rounded=0;entryX=0;entryY=0.25;entryDx=0;entryDy=0;exitX=0.982;exitY=0;exitDx=0;exitDy=0;exitPerimeter=0;" parent="KD-Kh0kLkDnsVTClBq_C-19" source="KD-Kh0kLkDnsVTClBq_C-3" target="KD-Kh0kLkDnsVTClBq_C-10" edge="1">
          <mxGeometry width="50" height="50" relative="1" as="geometry">
            <mxPoint x="235" y="170" as="sourcePoint" />
            <mxPoint x="275" y="150" as="targetPoint" />
          </mxGeometry>
        </mxCell>
        <mxCell id="KD-Kh0kLkDnsVTClBq_C-20" style="edgeStyle=orthogonalEdgeStyle;rounded=0;orthogonalLoop=1;jettySize=auto;html=1;" parent="1" source="KD-Kh0kLkDnsVTClBq_C-19" target="KD-Kh0kLkDnsVTClBq_C-19" edge="1">
          <mxGeometry relative="1" as="geometry" />
        </mxCell>
      </root>
    </mxGraphModel>
  </diagram>
</mxfile>
